<?xml version="1.0" encoding="UTF-8" standalone="no"?>
<svg
   inkscape:version="1.3.2 (091e20e, 2023-11-25)"
   sodipodi:docname="KOHUE-Abril-jarilla.svg"
   viewBox="0 0 116.948 116.94641"
   height="116.94642"
   width="116.948"
   xml:space="preserve"
   id="svg833"
   version="1.1"
   xmlns:inkscape="http://www.inkscape.org/namespaces/inkscape"
   xmlns:sodipodi="http://sodipodi.sourceforge.net/DTD/sodipodi-0.dtd"
   xmlns="http://www.w3.org/2000/svg"
   xmlns:svg="http://www.w3.org/2000/svg"
   xmlns:rdf="http://www.w3.org/1999/02/22-rdf-syntax-ns#"
   xmlns:cc="http://creativecommons.org/ns#"
   xmlns:dc="http://purl.org/dc/elements/1.1/"><metadata
     id="metadata839"><rdf:RDF><cc:Work
         rdf:about=""><dc:format>image/svg+xml</dc:format><dc:type
           rdf:resource="http://purl.org/dc/dcmitype/StillImage" /></cc:Work></rdf:RDF></metadata><defs
     id="defs837"><linearGradient
       id="swatch6"
       inkscape:swatch="solid"><stop
         style="stop-color:#48c192;stop-opacity:1;"
         offset="0"
         id="stop6" /></linearGradient><linearGradient
       id="swatch7"
       inkscape:swatch="solid"><stop
         style="stop-color:#000000;stop-opacity:1;"
         offset="0"
         id="stop7" /></linearGradient></defs><sodipodi:namedview
     inkscape:current-layer="g841"
     inkscape:window-maximized="0"
     inkscape:window-y="0"
     inkscape:window-x="22"
     inkscape:cy="568.51385"
     inkscape:cx="1207.7384"
     inkscape:zoom="0.1767767"
     showgrid="false"
     id="namedview835"
     inkscape:window-height="828"
     inkscape:window-width="1416"
     inkscape:pageshadow="2"
     inkscape:pageopacity="0"
     guidetolerance="10"
     gridtolerance="10"
     objecttolerance="10"
     borderopacity="1"
     bordercolor="#666666"
     pagecolor="#ffffff"
     inkscape:showpageshadow="2"
     inkscape:pagecheckerboard="0"
     inkscape:deskcolor="#d1d1d1"
     inkscape:lockguides="true" /><g
     transform="matrix(1.3333333,0,0,-1.3333333,-1438,1138.6667)"
     inkscape:label="ink_ext_XXXXXX"
     inkscape:groupmode="layer"
     id="g841"><path
       d="m 1165.7629,810.14722 h -0.4482 c -4e-4,-11.8645 -4.8079,-22.6014 -12.5826,-30.3793 -7.7755,-7.7738 -18.5123,-12.5805 -30.3764,-12.5805 -11.8644,0 -22.6013,4.8067 -30.3768,12.5805 -7.7747,7.7779 -12.5822,18.5148 -12.5822,30.3793 0,11.8644 4.8075,22.6013 12.5822,30.3751 7.7755,7.7739 18.5124,12.5806 30.3768,12.5847 11.8641,0 22.6009,-4.8108 30.3764,-12.5847 7.7747,-7.7738 12.5822,-18.5107 12.5826,-30.3751 h 0.4482 0.4481 c -4e-4,24.2186 -19.6346,43.8528 -43.8553,43.8528 -24.2211,0 -43.8553,-19.6342 -43.8557,-43.8528 4e-4,-24.2228 19.6346,-43.857 43.8557,-43.857 24.2207,0 43.8549,19.6342 43.8553,43.857 h -0.4481"
       style="fill:#46464e;fill-opacity:1;fill-rule:nonzero;stroke:none;stroke-width:0.0411532"
       id="path1035-0-0-6-5-6" /><path
       d="m 1161.6039,810.14722 h -0.2942 c 0,-10.7575 -4.3598,-20.4943 -11.4093,-27.548 -7.0504,-7.0495 -16.7868,-11.4076 -27.5447,-11.4076 -10.7578,0 -20.4947,4.3581 -27.545,11.4076 -7.0496,7.0537 -11.4089,16.7905 -11.4093,27.548 4e-4,10.7574 4.3597,20.4943 11.4093,27.5438 7.0503,7.0495 16.7872,11.4077 27.545,11.4077 10.7579,0 20.4943,-4.3582 27.5447,-11.4077 7.0495,-7.0495 11.4093,-16.7864 11.4093,-27.5438 h 0.2942 0.2938 c 0,21.8358 -17.7032,39.5399 -39.542,39.5399 -21.8387,0 -39.542,-17.7041 -39.5424,-39.5399 4e-4,-21.84 17.7037,-39.5441 39.5424,-39.5441 21.8388,0 39.542,17.7041 39.542,39.5441 h -0.2938"
       style="fill:#46464e;fill-opacity:1;fill-rule:nonzero;stroke:none;stroke-width:0.0411532"
       id="path1037-38-3-0-4-5" /><path
       style="fill:#46464e;fill-opacity:1;stroke-width:0.106951"
       d="m 1121.5359,777.50954 c -0.059,0.0231 -0.4679,0.12347 -0.9091,0.22388 -4.4205,1.00603 -6.5441,4.90779 -6.7519,12.40558 -0.031,1.11984 0,1.10121 -0.8209,0.44781 -3.5593,-2.82215 -7.0549,-2.99907 -9.7874,-0.49521 -2.8598,2.62051 -2.9705,6.25026 -0.2996,9.83333 l 0.8371,1.12301 -0.6527,0.0716 c -0.359,0.0394 -1.3079,0.12424 -2.1086,0.18854 -1.9903,0.15977 -4.5081,0.5865 -5.4362,0.92132 -6.7419,2.43192 -7.3399,11.70021 -0.9687,15.01278 1.4897,0.77451 5.5301,1.49595 8.4223,1.50383 0.4265,0 0.7754,0.0216 0.7754,0.0461 0,0.0235 -0.3923,0.56451 -0.8717,1.20129 -2.584,3.43238 -2.5562,6.98332 0.075,9.60695 2.7629,2.75468 6.2982,2.63775 10.0962,-0.3339 0.7482,-0.58545 0.6888,-0.69326 0.8052,1.46061 0.3382,6.25804 1.6846,9.14459 5.0575,10.84311 4.3511,2.19123 9.6897,0.0697 11.3603,-4.51438 0.465,-1.27582 1.0322,-5.16461 1.083,-7.42499 0.011,-0.45583 0.036,-0.82883 0.058,-0.82883 0.021,0 0.4115,0.27652 0.8668,0.61441 0.4553,0.33793 0.9962,0.72975 1.2021,0.8707 4.6087,3.15509 10.6354,0.0726 10.6404,-5.44228 0,-1.91913 -0.3825,-2.88765 -2.0011,-5.04301 -0.3987,-0.53104 -0.725,-0.97779 -0.725,-0.99278 0,-0.0154 0.6136,-0.0584 1.3637,-0.0967 2.6283,-0.13355 5.8132,-0.62866 6.9727,-1.08387 7.2171,-2.83377 7.0128,-12.9454 -0.3127,-15.47548 -1.0499,-0.36257 -4.0209,-0.78608 -7.0361,-1.00281 l -0.991,-0.0713 0.3754,-0.49656 c 3.1205,-4.12703 3.2436,-7.43671 0.3824,-10.28441 -2.6039,-2.59164 -6.0608,-2.62113 -9.4795,-0.081 -0.5835,0.4335 -1.114,0.82051 -1.179,0.86008 -0.082,0.0499 -0.124,-0.18306 -0.1371,-0.75371 -0.06,-2.60068 -0.5994,-6.19211 -1.1488,-7.64513 -1.2516,-3.31035 -6.1236,-6.18596 -8.7562,-5.16821 z m 2.44,1.9322 c 2.2495,0.47662 4.1795,2.27287 4.7714,4.44071 0.8229,3.01376 1.1156,9.47585 0.6047,13.34941 -0.355,2.69163 -0.9918,5.70333 -1.2634,5.97495 l -0.2482,0.24818 -0.6095,-0.21428 c -0.4982,-0.17509 -0.8829,-0.21418 -2.1068,-0.21418 h -1.4971 l -0.029,-3.58888 -0.03,-3.58894 0.6178,-0.27718 c 2.7485,-1.23323 2.57,-8.56213 -0.2313,-9.49257 -3.0586,-1.01592 -4.613,0.56225 -4.6085,4.679 0,3.36938 0.2534,4.04731 1.7645,4.79119 0.4864,0.23944 0.6846,0.39268 0.6442,0.49794 -0.032,0.0837 -0.058,1.68824 -0.058,3.56579 v 3.41365 l -1.524,0.007 c -1.2188,0 -1.6419,0.0447 -2.1123,0.20828 l -0.5882,0.20481 -0.2544,-0.2512 c -0.4836,-0.47754 -1.3297,-5.63192 -1.5016,-9.14766 -0.2146,-4.38727 0.3995,-9.72336 1.3048,-11.33775 1.4466,-2.57983 4.1653,-3.85593 6.9553,-3.26482 z m -0.2803,8.57902 c 0.4362,0.43619 0.4605,0.59371 0.4605,2.98092 v 2.3206 l -0.3819,0.36022 c -0.3932,0.37083 -0.4742,0.39196 -1.3827,0.36099 -1.4326,-0.0492 -1.9655,-5.38863 -0.6137,-6.14936 0.4466,-0.25135 1.6171,-0.17404 1.9178,0.12663 z m -14.6686,2.3377 c 0.7998,0.20828 1.2995,0.49694 2.7764,1.60363 1.9983,1.49735 2.0855,1.59891 2.0855,2.42716 0,1.35328 0.3402,4.09049 0.8067,6.49148 0.3096,1.59339 0.5633,1.43862 -1.6623,1.01448 -1.6172,-0.30816 -3.3425,-0.52244 -6.0744,-0.75463 l -0.6733,-0.0571 -0.7501,-0.87329 c -1.7614,-2.05062 -2.6645,-3.7575 -2.6609,-5.02885 0.01,-3.28221 3.0164,-5.63926 6.1524,-4.82268 z m 29.9037,0.0437 c 4.3785,1.35319 4.5995,5.76413 0.5107,10.19509 l -0.4726,0.51226 -1.5508,0.10834 c -1.7524,0.12246 -3.8297,0.40488 -5.7219,0.77806 -1.5475,0.30519 -1.3993,0.51961 -1.018,-1.47261 0.3948,-2.06287 0.6262,-3.87362 0.7159,-5.60335 l 0.068,-1.31496 0.8122,-0.67404 c 3.1436,-2.60922 4.6026,-3.1635 6.6563,-2.52879 z m -31.6435,12.62538 c 2.129,0.13585 3.5917,0.32766 6.1353,0.80452 2.7793,0.5211 2.8618,0.57551 2.4995,1.65083 -0.1733,0.51433 -0.2149,0.91863 -0.2149,2.08525 v 1.44721 h -3.5567 -3.5568 l -0.2434,-0.53055 c -0.3624,-0.79007 -0.7364,-1.17137 -1.4915,-1.52093 l -0.6796,-0.3145 -2.7492,0.0336 -2.7493,0.0336 -0.4991,0.29337 c -1.5345,0.90211 -2.0929,3.09022 -1.1959,4.68678 1.4101,2.5101 8.2812,2.30764 9.3518,-0.27546 l 0.2434,-0.58712 h 3.5519 3.552 l 0.045,1.68449 c 0.035,1.31438 0.088,1.78625 0.2403,2.14806 l 0.1952,0.46361 -0.2572,0.25721 c -0.2822,0.28218 -3.205,0.89106 -6.1903,1.28951 -1.8022,0.24059 -7.33,0.27819 -9.0907,0.0617 -4.6077,-0.5661 -6.1291,-1.2084 -7.4464,-3.14386 -2.6817,-3.93993 -0.5648,-8.97646 4.1735,-9.92972 3.0034,-0.60417 6.7163,-0.84227 9.933,-0.63711 z m 37.4034,0.16347 c 6.0738,0.66223 8.563,2.59683 8.5953,6.67996 0.039,4.98011 -3.7834,7.06199 -12.9593,7.05781 -3.8867,0 -10.2732,-0.90206 -10.9122,-1.53817 l -0.2496,-0.24852 0.2229,-0.72178 c 0.1789,-0.5792 0.2229,-1.00449 0.2229,-2.15425 v -1.43257 h 3.5561 3.5561 l 0.2522,0.58252 c 1.1542,2.66656 8.0472,2.76352 9.4528,0.13288 0.3795,-0.71016 0.3544,-2.4835 -0.046,-3.24202 -1.3541,-2.56629 -8.4455,-2.4092 -9.4454,0.20919 l -0.1893,0.49559 h -3.5569 -3.5569 l -0.048,-1.63094 c -0.037,-1.25652 -0.094,-1.74775 -0.2485,-2.13956 -0.3196,-0.81077 -0.1896,-0.88588 2.3808,-1.37581 4.8931,-0.9326 8.7766,-1.13559 12.973,-0.67803 z m -22.9776,2.7322 c 0.078,2.29914 1.8133,2.29914 1.8917,0 l 0.037,-1.07887 h 1.3303 c 2.3892,0 2.8128,0.44608 2.8181,2.96785 v 1.20316 h -0.9678 c -1.3655,0 -1.7059,0.20078 -1.7059,1.00613 0,0.62684 0.3202,0.7989 1.5532,0.83458 l 1.067,0.0307 v 1.44385 c 0,2.35292 -0.3162,2.67376 -2.636,2.67376 h -1.4815 v -0.85908 c 0,-1.06019 -0.1751,-1.52899 -0.6302,-1.68771 -0.8555,-0.29822 -1.2949,0.27445 -1.2949,1.68771 v 0.85908 h -1.4813 c -2.3246,0 -2.7246,-0.42509 -2.667,-2.8342 l 0.031,-1.28341 1.1061,-0.0538 c 1.2264,-0.0591 1.5142,-0.22253 1.5142,-0.85874 0,-0.75573 -0.3643,-0.95945 -1.7162,-0.95945 h -0.9781 l 0.037,-1.47862 c 0.058,-2.32603 0.4364,-2.69215 2.7809,-2.6923 l 1.3536,-5e-5 z m -15.4587,2.79435 c 0.446,0.3425 0.4655,0.38985 0.4673,1.13195 0,1.47823 -0.2856,1.62571 -3.1876,1.62571 -2.8917,0 -3.8023,-0.72485 -2.959,-2.35556 0.3592,-0.69451 4.8815,-1.01482 5.6793,-0.4021 z m 37.9994,-0.0813 c 0.9522,0.49242 0.8372,2.2649 -0.1746,2.69321 -0.4927,0.20856 -4.2782,0.20578 -4.779,-0.007 -0.9305,-0.3888 -1.027,-2.37857 -0.1328,-2.73941 0.4199,-0.16943 4.7443,-0.12717 5.0864,0.0499 z m -26.5627,7.86003 c 0.2442,0.24376 1.4212,0.43335 2.6909,0.43335 h 1.3144 l 0.02,2.05879 c 0.019,1.96955 0.016,3.5205 -0.01,4.5843 -0.011,0.47893 -0.025,0.49862 -0.4672,0.66761 -0.6482,0.24751 -1.1597,0.70589 -1.5263,1.36769 l -0.3172,0.57281 v 2.83416 2.83416 l 0.3208,0.58444 c 1.2817,2.33443 5.1164,2.08068 6.0446,-0.40003 0.2105,-0.56273 0.223,-0.7737 0.1919,-3.22737 l -0.033,-2.62536 -0.3187,-0.57541 c -0.3422,-0.618 -1.0228,-1.21055 -1.6144,-1.40586 l -0.3663,-0.12087 v -3.56286 -3.56291 l 1.5775,-0.0471 c 1.2197,-0.0365 1.6974,-0.094 2.1062,-0.25341 l 0.5288,-0.20626 0.2566,0.25663 c 0.2767,0.27666 0.8907,3.21234 1.2639,6.0428 0.5275,4.00164 0.1565,11.1664 -0.7054,13.61834 -1.8523,5.27012 -9.175,5.67898 -11.7212,0.65431 -1.0998,-2.17043 -1.5869,-9.50692 -0.9538,-14.36668 0.5908,-4.53474 1.1897,-6.68159 1.717,-6.15522 z m -2.7746,1.36917 c -0.3113,1.03326 -0.9061,5.25081 -0.9915,7.03193 l -0.062,1.28345 -0.6293,0.59923 c -3.5012,3.33408 -6.7393,3.83188 -9.0018,1.38373 -2.1797,-2.35845 -1.8361,-4.6535 1.2617,-8.42675 l 0.8122,-0.98926 h 0.5679 c 1.3557,0 5.5834,-0.55035 7.2823,-0.94788 0.6805,-0.15929 0.8242,-0.14695 0.7601,0.0656 z m 17.5284,0.18211 c 1.8553,0.34067 3.6801,0.56854 5.2739,0.65863 l 1.3108,0.0741 0.4509,0.53742 c 3.4462,4.10801 3.8617,6.7993 1.3976,9.05152 -2.5205,2.30346 -4.9681,1.79451 -9.2385,-1.9211 -0.1489,-0.12952 -0.1977,-0.42539 -0.2534,-1.53654 -0.095,-1.89661 -0.5907,-5.39026 -0.9942,-7.00921 -0.061,-0.24314 -0.044,-0.25317 0.2992,-0.18368 0.1999,0.0408 0.989,0.18844 1.7537,0.32886 z m -8.8422,8.04842 c 0.5326,0.39537 0.5588,0.54678 0.5283,3.06164 l -0.028,2.33515 -0.3428,0.3061 c -0.617,0.55097 -1.585,0.55097 -2.202,0 l -0.3428,-0.3061 -0.032,-2.40522 -0.032,-2.40526 0.3316,-0.37765 c 0.4809,-0.54775 1.5255,-0.65052 2.1207,-0.20866 z"
       id="path1-79-2-3" /></g></svg>
