<?xml version="1.0" encoding="UTF-8" standalone="no"?>
<svg
   inkscape:version="1.3.2 (091e20e, 2023-11-25)"
   sodipodi:docname="KOHUE-show.svg"
   viewBox="0 0 805.328 116.94641"
   height="116.94642"
   width="805.328"
   xml:space="preserve"
   id="svg833"
   version="1.1"
   xmlns:inkscape="http://www.inkscape.org/namespaces/inkscape"
   xmlns:sodipodi="http://sodipodi.sourceforge.net/DTD/sodipodi-0.dtd"
   xmlns="http://www.w3.org/2000/svg"
   xmlns:svg="http://www.w3.org/2000/svg"
   xmlns:rdf="http://www.w3.org/1999/02/22-rdf-syntax-ns#"
   xmlns:cc="http://creativecommons.org/ns#"
   xmlns:dc="http://purl.org/dc/elements/1.1/"><metadata
     id="metadata839"><rdf:RDF><cc:Work
         rdf:about=""><dc:format>image/svg+xml</dc:format><dc:type
           rdf:resource="http://purl.org/dc/dcmitype/StillImage" /></cc:Work></rdf:RDF></metadata><defs
     id="defs837"><linearGradient
       id="swatch7"
       inkscape:swatch="solid"><stop
         style="stop-color:#000000;stop-opacity:1;"
         offset="0"
         id="stop7" /></linearGradient></defs><sodipodi:namedview /><g
     transform="matrix(1.3333333,0,0,-1.3333333,-627,700.66676)"
     inkscape:label="ink_ext_XXXXXX"
     inkscape:groupmode="layer"
     id="g841"><path
       style="fill:#d9c38c;fill-opacity:1;stroke-width:0.289051"
       d="m 721.3479,454.28397 -2.109,0.2839 -2.7094,0.68731 -2.7093,0.6873 -2.3555,1.0208 -2.3555,1.0207 -2.5009,1.664 -2.5009,1.6641 -1.9207,1.8903 -1.9208,1.8903 -1.4608,2.2416 -1.4608,2.2416 -0.7385,2.2387 -0.7386,2.2387 -0.3317,2.1678 -0.3317,2.1679 0.1856,2.4374 0.1856,2.4373 0.4501,1.7372 0.4501,1.7372 0.8186,1.8051 0.8185,1.8053 0.9505,1.391 0.9505,1.3911 1.5939,1.68 1.5938,1.68 1.89,1.3967 1.89,1.3967 1.9168,1.05 1.9168,1.0499 2.3316,0.8509 2.3315,0.8509 2.9779,0.6422 2.9779,0.6422 h 5.492 5.4919 l 3.0159,-0.6499 3.0158,-0.6499 2.589,-0.9999 2.5889,-0.9998 2.2193,-1.3202 2.2193,-1.3201 2.0715,-1.7827 2.0715,-1.7827 1.4658,-1.8458 1.4658,-1.8458 1.0158,-2.0172 1.0158,-2.0171 0.5857,-2.2071 0.5857,-2.2071 0.014,-3.3241 0.014,-3.3241 -0.4697,-1.9453 -0.4698,-1.9453 -0.8397,-1.852 -0.8398,-1.852 -1.1566,-1.6947 -1.1567,-1.6946 -2.1281,-2.0442 -2.128,-2.0442 -1.7343,-1.1684 -1.7343,-1.1684 -2.0234,-1.0139 -2.0233,-1.0139 -2.2395,-0.7483 -2.2396,-0.7485 -2.3853,-0.469 -2.3853,-0.46911 -4.4803,-0.1024 -4.4802,-0.1024 z m 9.8468,2.41741 1.9568,0.4146 1.7208,0.9172 1.7209,0.9172 1.4632,1.5471 1.4631,1.5471 1.1357,2.3912 1.1357,2.3912 0.5978,2.9816 0.5977,2.9817 0.1747,4.1 0.1746,4.1002 -0.3302,3.3567 -0.3302,3.3567 -0.581,2.2798 -0.581,2.2797 -0.9949,2.1002 -0.995,2.1001 -1.5154,1.6023 -1.5155,1.6024 -2.0375,0.9727 -2.0376,0.9728 -1.7151,0.3108 -1.7151,0.311 h -2.1871 l -2.187,-0.01 -1.9568,-0.4147 -1.9569,-0.4146 -1.7208,-0.9172 -1.7208,-0.9172 -1.4254,-1.5071 -1.4253,-1.5071 -0.8701,-1.7237 -0.8702,-1.7237 -0.4548,-1.5746 -0.4548,-1.5747 -0.3095,-1.5898 -0.3095,-1.5898 -0.2299,-3.8579 -0.23,-3.8579 0.2429,-3.9657 0.2429,-3.9656 0.6974,-2.7493 0.6974,-2.7493 0.9241,-1.8306 0.9241,-1.8306 1.4253,-1.5071 1.4254,-1.5071 1.7302,-0.9222 1.7302,-0.9222 1.8029,-0.3916 1.8029,-0.3918 2.4569,-0.018 2.457,-0.018 z m 201.9684,-2.40711 -2.4569,0.2533 -2.457,0.60661 -2.4569,0.6066 -2.0905,0.9594 -2.0906,0.9594 -1.5883,1.5022 -1.5884,1.5022 -0.7495,1.2789 -0.7495,1.2789 -0.5723,1.6481 -0.5724,1.648 -0.4571,1.8789 -0.4572,1.8788 -0.1299,12.9957 -0.1299,12.9957 -1.9275,2.3919 -1.9275,2.392 h -3.2518 -3.2519 v 1.0116 1.0117 h 16.1869 16.1868 v -1.0117 -1.0116 h -2.1506 -2.1507 l -2.0697,-2.5114 -2.0698,-2.5114 0.1301,-13.8923 0.1301,-13.8922 0.622,-2.2875 0.622,-2.2875 0.6986,-1.1811 0.6986,-1.1811 1.1076,-1.0644 1.1077,-1.0645 1.4453,-0.7159 1.4452,-0.7159 1.3008,-0.386 1.3007,-0.386 5.0584,0.032 5.0584,0.032 2.2247,0.6014 2.2246,0.6015 1.5886,0.7514 1.5885,0.7515 1.4121,1.2696 1.412,1.2695 0.9242,1.734 0.9241,1.7338 0.6156,2.2587 0.6157,2.2586 0.1283,10.8709 0.1283,10.8708 -4.14,4.5211 -4.1399,4.5211 h -3.5484 -3.5482 v 1.0117 1.0117 h 15.1752 15.1751 v -1.0117 -1.0117 h -2.1365 -2.1365 l -4.0761,-4.408 -4.0762,-4.408 v -9.5387 l -0.01,-9.5387 -0.3125,-2.6014 -0.3125,-2.6015 -0.7103,-2.1679 -0.7103,-2.1678 -1.298,-1.9197 -1.2981,-1.9196 -1.3637,-1.0627 -1.3638,-1.0627 -1.815,-0.8664 -1.815,-0.8664 -2.7288,-0.6922 -2.7289,-0.69221 -2.9298,-0.3007 -2.9298,-0.3006 -3.6548,0.039 -3.6548,0.039 z m -342.525,2.12691 v 1.0116 h 3.2518 3.2518 l 1.9511,2.3078 1.9511,2.3077 v 17.2064 17.2063 l -1.9511,2.3077 -1.9511,2.3077 h -3.2518 -3.2518 v 1.0117 1.0117 h 16.1868 16.1869 v -1.0117 -1.0117 h -2.5391 -2.5391 l -1.5112,-1.5302 -1.5112,-1.5302 0.076,-10.6956 0.076,-10.6956 13.3758,8.6735 13.3758,8.6735 -3.5437,3.5523 -3.5438,3.5523 h -1.8109 -1.8109 v 1.0117 1.0117 h 15.7533 15.7532 v -1.0117 -1.0117 h -2.4644 -2.4644 l -10.3261,-6.5364 -10.3261,-6.5365 -0.3499,-0.3284 -0.35,-0.3286 11.4266,-14.9583 11.4266,-14.9584 h 2.292 2.2919 v -1.0117 -1.0117 H 647.437 631.1056 v 1.0028 1.0028 l 3.4993,0.081 3.4994,0.081 0.6919,1.8417 0.6919,1.8418 v 0.4943 0.4943 l -6.8068,9.0814 -6.8067,9.0815 -0.3473,0.056 -0.3473,0.056 -5.0583,-3.242 -5.0584,-3.2421 -0.078,-6.439 -0.078,-6.439 1.5231,-1.8605 1.5231,-1.8605 h 2.5291 2.5292 v -1.0117 -1.0117 H 606.825 590.6382 Z m 205.804,0 v 1.0116 h 3.2571 3.257 l 1.9459,2.4881 1.9459,2.488 v 16.9099 16.9099 l -1.9511,2.4211 -1.9511,2.4211 h -3.2518 -3.2519 v 1.0116 1.0117 h 16.1869 16.1868 v -1.0117 -1.0116 h -2.1583 -2.1583 l -2.0329,-2.5261 -2.0329,-2.5261 v -7.4458 -7.4462 h 11.851 11.8511 v 7.6179 7.6179 l -1.9146,2.3543 -1.9146,2.3544 h -2.1321 -2.1321 v 1.0117 1.0116 h 16.3314 16.3313 v -1.0116 -1.0117 h -3.4127 -3.4127 l -1.9318,-2.3847 -1.9319,-2.3847 v -17.0198 -17.0198 l 1.9511,-2.4186 1.9511,-2.4186 3.3964,-3e-4 3.3963,-2e-4 v -1.0116 -1.0117 h -16.3314 -16.3313 v 1.0117 1.0116 h 2.1198 2.1198 l 1.9269,2.3823 1.9269,2.3823 v 8.0235 8.0236 h -11.8511 -11.8511 v -7.8798 -7.8797 l 2.033,-2.5261 2.0329,-2.5261 h 2.1583 2.1583 v -1.0116 -1.0117 h -16.187 -16.1869 z m 213.3194,0 v 1.0116 h 4.3051 4.3052 l 1.9059,2.2402 1.906,2.2401 v 17.3431 17.343 l -1.906,2.2402 -1.9059,2.2401 h -4.3052 -4.3051 v 1.0117 1.0116 h 31.0729 31.073 v -8.816 -8.816 h -0.6671 -0.6671 l -4.8831,7.6598 -4.8832,7.6598 -10.4198,-0.022 -10.4198,-0.022 -1.9511,-2.2616 -1.9511,-2.2617 v -8.2742 -8.2741 l 4.8144,0.079 4.8144,0.079 3.6403,5.4062 3.6403,5.4062 0.7949,0.014 0.7949,0.014 v -12.1401 -12.1401 l -0.7949,0.01 h -0.7949 l -3.6719,5.6317 -3.672,5.6317 h -4.7828 -4.7827 v -7.844 -7.844 l 1.9083,-2.1321 1.9082,-2.1322 9.5542,0.076 9.5542,0.076 6.82,9.3124 6.82,9.3124 0.808,0.01 0.808,0.01 -0.1476,-0.9394 -0.1475,-0.9394 -0.4994,-9.6109 -0.4992,-9.611 h -31.5954 -31.5954 z"
       id="path2-2-1-30-0-7" /><path
       d="m 557.5129,481.64728 h -0.4482 c -4e-4,-11.8645 -4.8079,-22.6014 -12.5826,-30.37931 -7.7755,-7.7738 -18.5123,-12.5805 -30.3764,-12.5805 -11.8644,0 -22.6013,4.8067 -30.3768,12.5805 -7.7747,7.77791 -12.5822,18.51481 -12.5822,30.37931 0,11.8644 4.8075,22.6013 12.5822,30.3751 7.7755,7.7739 18.5124,12.5806 30.3768,12.5847 11.8641,0 22.6009,-4.8108 30.3764,-12.5847 7.7747,-7.7738 12.5822,-18.5107 12.5826,-30.3751 h 0.4482 0.4481 c -4e-4,24.2186 -19.6346,43.8528 -43.8553,43.8528 -24.2211,0 -43.8553,-19.6342 -43.8557,-43.8528 4e-4,-24.2228 19.6346,-43.85701 43.8557,-43.85701 24.2207,0 43.8549,19.63421 43.8553,43.85701 h -0.4481"
       style="fill:#d9c38c;fill-opacity:1;fill-rule:nonzero;stroke:none;stroke-width:0.0411532"
       id="path1035-0-7-6" /><path
       d="m 524.0026,463.88558 -3.9893,11.0784 h 0.9131 c 0.1317,0 0.2593,0 0.3889,-0.01 0.058,-0.012 0.1169,-0.025 0.1828,-0.021 0.1156,0 0.2292,0 0.344,0.01 0.4835,-0.01 0.9486,-0.01 1.3947,0 0.9679,-0.029 1.8836,-0.1111 2.7288,-0.2181 z m -10.8549,14.4982 0.7255,2.0289 v 0 c 0.044,0.1111 0.091,0.2181 0.1346,0.3292 0.2609,-0.6831 0.5333,-1.3786 0.8288,-2.0988 l 0.029,0.012 0.097,-0.2716 z m -8.9665,-14.4242 -1.9622,11.0044 h 5.8956 z m 8.9068,34.9144 c 0.3572,0.2263 1.3696,0.4938 2.2404,-0.1152 l 0.3053,-0.2346 c 0.1379,-0.099 0.3354,-0.3622 0.3412,-0.7778 0.01,-0.5556 -1.447,-5.0372 -2.0033,-6.6709 -0.5713,1.4856 -1.7593,6.1236 -1.7421,6.3005 0.1058,1.0865 0.2272,1.0906 0.8585,1.498 z m 23.2285,-24.4409 c -1.249,0.8889 -2.4573,1.6338 -3.7384,2.2264 1.2811,0.5926 2.4894,1.3375 3.7384,2.2264 1.0856,0.7737 2.1058,1.6626 2.8638,2.7614 2.0264,2.9301 2.8042,7.1318 2.5816,10.6874 -0.9811,0.1235 -1.8597,0.037 -3.3536,0 -0.2016,-3.2963 -0.4951,-6.8355 -2.6005,-9.3788 -1.2642,-1.5309 -3.0613,-2.5268 -4.9042,-3.2593 -0.207,-0.086 -0.6325,-0.2263 -1.2251,-0.3868 l 3.5527,19.6177 h 2.712 v 4.0412 h -7.5754 v -4.0412 h 1.9811 l -3.6643,-20.235 c -0.9934,-0.1482 -2.1087,-0.2675 -3.3038,-0.3087 h -4.5984 l -2.7668,7.6874 c 1.0704,2.9878 2.0548,5.9467 2.9264,8.6299 0.2605,0.7983 0.621,1.893 0.6062,3.0823 -0.014,1.5186 -0.6708,2.8972 -1.7515,3.6832 -1.6313,1.2017 -4.4297,0.9507 -5.8067,0.4692 -1.1276,-0.391 -2.0622,-1.3375 -2.8383,-2.5186 -0.9317,-1.4198 -0.3531,-3.0618 -0.1539,-3.9672 l 0.114,-0.5761 c 0.3576,-2.0988 1.1103,-4.033 1.8428,-5.9014 l 0.1461,-0.3786 c 0.3478,-0.893 0.6634,-1.7408 0.9663,-2.5679 l -2.7301,-7.6422 h -7.7273 l -3.6619,20.5437 h 1.9882 v 4.0412 h -7.5768 v -4.0412 h 2.7087 l 3.6619,-20.5437 h -6.9739 v 15.9592 h -3.419 v -31.9184 h 3.419 v 12.5394 h 7.5833 l 2.8672,-16.0827 h -2.3157 v -3.5968 h 2.9564 2.0408 0.079 v 0.2264 l 6.9578,19.4531 h 4.2721 l 7.0965,-19.6795 h 0.1082 1.9256 3.1511 v 3.5968 h -2.5001 l 2.7807,15.3543 c 1.0811,-0.2469 1.842,-0.4897 2.1445,-0.6091 1.8429,-0.7366 3.64,-1.7325 4.9042,-3.2593 2.1054,-2.5474 2.3989,-6.0866 2.6005,-9.3829 1.4939,-0.037 2.3725,-0.1235 3.3536,0 0.2226,3.5556 -0.5552,7.7573 -2.5816,10.6916 -0.758,1.0946 -1.7782,1.9835 -2.8638,2.7572"
       style="fill:#d9c38c;fill-opacity:1;fill-rule:nonzero;stroke:none;stroke-width:0.0411532"
       id="path1039-36-8-0" /></g></svg>
