<?xml version="1.0" encoding="UTF-8" standalone="no"?>
<svg
   inkscape:version="1.3.2 (091e20e, 2023-11-25)"
   sodipodi:docname="KOHUE-show.svg"
   viewBox="0 0 116.948 116.94641"
   height="116.94642"
   width="116.948"
   xml:space="preserve"
   id="svg833"
   version="1.1"
   xmlns:inkscape="http://www.inkscape.org/namespaces/inkscape"
   xmlns:sodipodi="http://sodipodi.sourceforge.net/DTD/sodipodi-0.dtd"
   xmlns="http://www.w3.org/2000/svg"
   xmlns:svg="http://www.w3.org/2000/svg"
   xmlns:rdf="http://www.w3.org/1999/02/22-rdf-syntax-ns#"
   xmlns:cc="http://creativecommons.org/ns#"
   xmlns:dc="http://purl.org/dc/elements/1.1/"><metadata
     id="metadata839"><rdf:RDF><cc:Work
         rdf:about=""><dc:format>image/svg+xml</dc:format><dc:type
           rdf:resource="http://purl.org/dc/dcmitype/StillImage" /></cc:Work></rdf:RDF></metadata><defs
     id="defs837"><linearGradient
       id="swatch7"
       inkscape:swatch="solid"><stop
         style="stop-color:#000000;stop-opacity:1;"
         offset="0"
         id="stop7" /></linearGradient></defs><sodipodi:namedview
     inkscape:current-layer="g841"
     inkscape:window-maximized="0"
     inkscape:window-y="0"
     inkscape:window-x="22"
     inkscape:cy="2118.9691"
     inkscape:cx="1303.0165"
     inkscape:zoom="0.51841248"
     showgrid="false"
     id="namedview835"
     inkscape:window-height="828"
     inkscape:window-width="1416"
     inkscape:pageshadow="2"
     inkscape:pageopacity="0"
     guidetolerance="10"
     gridtolerance="10"
     objecttolerance="10"
     borderopacity="1"
     bordercolor="#666666"
     pagecolor="#ffffff"
     inkscape:showpageshadow="2"
     inkscape:pagecheckerboard="0"
     inkscape:deskcolor="#d1d1d1"
     inkscape:lockguides="true" /><g
     transform="matrix(1.3333333,0,0,-1.3333333,-627,700.66676)"
     inkscape:label="ink_ext_XXXXXX"
     inkscape:groupmode="layer"
     id="g841"><path
       d="m 557.5129,481.64728 h -0.4482 c -4e-4,-11.8645 -4.8079,-22.6014 -12.5826,-30.37931 -7.7755,-7.7738 -18.5123,-12.5805 -30.3764,-12.5805 -11.8644,0 -22.6013,4.8067 -30.3768,12.5805 -7.7747,7.77791 -12.5822,18.51481 -12.5822,30.37931 0,11.8644 4.8075,22.6013 12.5822,30.3751 7.7755,7.7739 18.5124,12.5806 30.3768,12.5847 11.8641,0 22.6009,-4.8108 30.3764,-12.5847 7.7747,-7.7738 12.5822,-18.5107 12.5826,-30.3751 h 0.4482 0.4481 c -4e-4,24.2186 -19.6346,43.8528 -43.8553,43.8528 -24.2211,0 -43.8553,-19.6342 -43.8557,-43.8528 4e-4,-24.2228 19.6346,-43.85701 43.8557,-43.85701 24.2207,0 43.8549,19.63421 43.8553,43.85701 h -0.4481"
       style="fill:#d9c38c;fill-opacity:1;fill-rule:nonzero;stroke:none;stroke-width:0.0411532"
       id="path1035-0-7-6" /><path
       d="m 524.0026,463.88558 -3.9893,11.0784 h 0.9131 c 0.1317,0 0.2593,0 0.3889,-0.01 0.058,-0.012 0.1169,-0.025 0.1828,-0.021 0.1156,0 0.2292,0 0.344,0.01 0.4835,-0.01 0.9486,-0.01 1.3947,0 0.9679,-0.029 1.8836,-0.1111 2.7288,-0.2181 z m -10.8549,14.4982 0.7255,2.0289 v 0 c 0.044,0.1111 0.091,0.2181 0.1346,0.3292 0.2609,-0.6831 0.5333,-1.3786 0.8288,-2.0988 l 0.029,0.012 0.097,-0.2716 z m -8.9665,-14.4242 -1.9622,11.0044 h 5.8956 z m 8.9068,34.9144 c 0.3572,0.2263 1.3696,0.4938 2.2404,-0.1152 l 0.3053,-0.2346 c 0.1379,-0.099 0.3354,-0.3622 0.3412,-0.7778 0.01,-0.5556 -1.447,-5.0372 -2.0033,-6.6709 -0.5713,1.4856 -1.7593,6.1236 -1.7421,6.3005 0.1058,1.0865 0.2272,1.0906 0.8585,1.498 z m 23.2285,-24.4409 c -1.249,0.8889 -2.4573,1.6338 -3.7384,2.2264 1.2811,0.5926 2.4894,1.3375 3.7384,2.2264 1.0856,0.7737 2.1058,1.6626 2.8638,2.7614 2.0264,2.9301 2.8042,7.1318 2.5816,10.6874 -0.9811,0.1235 -1.8597,0.037 -3.3536,0 -0.2016,-3.2963 -0.4951,-6.8355 -2.6005,-9.3788 -1.2642,-1.5309 -3.0613,-2.5268 -4.9042,-3.2593 -0.207,-0.086 -0.6325,-0.2263 -1.2251,-0.3868 l 3.5527,19.6177 h 2.712 v 4.0412 h -7.5754 v -4.0412 h 1.9811 l -3.6643,-20.235 c -0.9934,-0.1482 -2.1087,-0.2675 -3.3038,-0.3087 h -4.5984 l -2.7668,7.6874 c 1.0704,2.9878 2.0548,5.9467 2.9264,8.6299 0.2605,0.7983 0.621,1.893 0.6062,3.0823 -0.014,1.5186 -0.6708,2.8972 -1.7515,3.6832 -1.6313,1.2017 -4.4297,0.9507 -5.8067,0.4692 -1.1276,-0.391 -2.0622,-1.3375 -2.8383,-2.5186 -0.9317,-1.4198 -0.3531,-3.0618 -0.1539,-3.9672 l 0.114,-0.5761 c 0.3576,-2.0988 1.1103,-4.033 1.8428,-5.9014 l 0.1461,-0.3786 c 0.3478,-0.893 0.6634,-1.7408 0.9663,-2.5679 l -2.7301,-7.6422 h -7.7273 l -3.6619,20.5437 h 1.9882 v 4.0412 h -7.5768 v -4.0412 h 2.7087 l 3.6619,-20.5437 h -6.9739 v 15.9592 h -3.419 v -31.9184 h 3.419 v 12.5394 h 7.5833 l 2.8672,-16.0827 h -2.3157 v -3.5968 h 2.9564 2.0408 0.079 v 0.2264 l 6.9578,19.4531 h 4.2721 l 7.0965,-19.6795 h 0.1082 1.9256 3.1511 v 3.5968 h -2.5001 l 2.7807,15.3543 c 1.0811,-0.2469 1.842,-0.4897 2.1445,-0.6091 1.8429,-0.7366 3.64,-1.7325 4.9042,-3.2593 2.1054,-2.5474 2.3989,-6.0866 2.6005,-9.3829 1.4939,-0.037 2.3725,-0.1235 3.3536,0 0.2226,3.5556 -0.5552,7.7573 -2.5816,10.6916 -0.758,1.0946 -1.7782,1.9835 -2.8638,2.7572"
       style="fill:#d9c38c;fill-opacity:1;fill-rule:nonzero;stroke:none;stroke-width:0.0411532"
       id="path1039-36-8-0"
       inkscape:export-filename="kohue-sello-name.svg"
       inkscape:export-xdpi="24.158974"
       inkscape:export-ydpi="24.158974" /></g></svg>
