<?xml version="1.0" encoding="UTF-8" standalone="no"?>
<svg
   inkscape:version="1.3.2 (091e20e, 2023-11-25)"
   sodipodi:docname="KOHUE-Abril-jarilla.svg"
   viewBox="0 0 644.81055 67.208738"
   height="67.20874"
   width="644.81055"
   xml:space="preserve"
   id="svg833"
   version="1.1"
   xmlns:inkscape="http://www.inkscape.org/namespaces/inkscape"
   xmlns:sodipodi="http://sodipodi.sourceforge.net/DTD/sodipodi-0.dtd"
   xmlns="http://www.w3.org/2000/svg"
   xmlns:svg="http://www.w3.org/2000/svg"
   xmlns:rdf="http://www.w3.org/1999/02/22-rdf-syntax-ns#"
   xmlns:cc="http://creativecommons.org/ns#"
   xmlns:dc="http://purl.org/dc/elements/1.1/"><metadata
     id="metadata839"><rdf:RDF><cc:Work
         rdf:about=""><dc:format>image/svg+xml</dc:format><dc:type
           rdf:resource="http://purl.org/dc/dcmitype/StillImage" /></cc:Work></rdf:RDF></metadata><defs
     id="defs837"><linearGradient
       id="swatch6"
       inkscape:swatch="solid"><stop
         style="stop-color:#48c192;stop-opacity:1;"
         offset="0"
         id="stop6" /></linearGradient><linearGradient
       id="swatch7"
       inkscape:swatch="solid"><stop
         style="stop-color:#000000;stop-opacity:1;"
         offset="0"
         id="stop7" /></linearGradient></defs><sodipodi:namedview
     inkscape:current-layer="g841"
     inkscape:window-maximized="0"
     inkscape:window-y="0"
     inkscape:window-x="22"
     inkscape:cy="568.51385"
     inkscape:cx="1207.7384"
     inkscape:zoom="0.1767767"
     showgrid="false"
     id="namedview835"
     inkscape:window-height="828"
     inkscape:window-width="1416"
     inkscape:pageshadow="2"
     inkscape:pageopacity="0"
     guidetolerance="10"
     gridtolerance="10"
     objecttolerance="10"
     borderopacity="1"
     bordercolor="#666666"
     pagecolor="#ffffff"
     inkscape:showpageshadow="2"
     inkscape:pagecheckerboard="0"
     inkscape:deskcolor="#d1d1d1"
     inkscape:lockguides="true" /><g
     transform="matrix(1.3333333,0,0,-1.3333333,-1053.3718,494.44813)"
     inkscape:label="ink_ext_XXXXXX"
     inkscape:groupmode="layer"
     id="g841"><path
       style="fill:#46464e;fill-opacity:1;stroke-width:0.289051"
       d="m 920.73862,320.74992 -2.10899,0.28396 -2.70935,0.68729 -2.70935,0.68728 -2.35548,1.02078 -2.35547,1.02073 -2.50089,1.66404 -2.5009,1.66404 -1.92075,1.89032 -1.92076,1.89027 -1.46083,2.24165 -1.46083,2.24161 -0.73852,2.23868 -0.73852,2.23864 -0.3317,2.16787 -0.3317,2.16789 0.18556,2.43735 0.18556,2.43735 0.45014,1.73715 0.45015,1.7372 0.81852,1.80518 0.81852,1.80521 0.95049,1.39107 0.95048,1.39108 1.5939,1.68 1.59388,1.68 1.88998,1.39673 1.88997,1.39669 1.91679,1.04995 1.9168,1.04995 2.33159,0.85088 2.33158,0.85093 2.97788,0.64219 2.97789,0.6422 h 5.492 5.4919 l 3.0159,-0.6499 3.0158,-0.64994 2.5889,-0.99985 2.589,-0.99984 2.2193,-1.32016 2.2193,-1.32011 2.0715,-1.78271 2.0715,-1.78271 1.4658,-1.8458 1.4657,-1.84581 1.0159,-2.01715 1.0158,-2.01719 0.5857,-2.20707 0.5856,-2.20712 0.014,-3.32408 0.014,-3.32408 -0.4697,-1.94531 -0.4697,-1.94527 -0.8397,-1.85205 -0.8398,-1.852 -1.1567,-1.69465 -1.1566,-1.69465 -2.1281,-2.0442 -2.128,-2.0442 -1.7343,-1.16839 -1.7343,-1.16838 -2.0234,-1.01387 -2.0234,-1.01391 -2.2395,-0.74837 -2.2395,-0.74841 -2.3853,-0.46907 -2.3853,-0.46904 -4.4803,-0.10243 -4.4802,-0.1024 z m 9.84684,2.41739 1.9568,0.41465 1.7208,0.91717 1.7209,0.91722 1.4631,1.54712 1.4632,1.54707 1.1357,2.39122 1.1357,2.39118 0.5978,2.98162 0.5977,2.98165 0.1747,4.10008 0.1746,4.10013 -0.3302,3.35673 -0.3302,3.35672 -0.581,2.27976 -0.581,2.27977 -0.995,2.10013 -0.9949,2.10013 -1.5155,1.60234 -1.5154,1.60234 -2.0375,0.97271 -2.0376,0.97276 -1.7151,0.3109 -1.7151,0.31094 -2.1871,-0.005 -2.187,-0.005 -1.95686,-0.41465 -1.95682,-0.41465 -1.72083,-0.91718 -1.72084,-0.91722 -1.42534,-1.50707 -1.42533,-1.50711 -0.87013,-1.7237 -0.87012,-1.72367 -0.45484,-1.57468 -0.45484,-1.57467 -0.30948,-1.58978 -0.30947,-1.58978 -0.22995,-3.85793 -0.22994,-3.85794 0.24289,-3.96567 0.24289,-3.96561 0.69742,-2.7493 0.69741,-2.74933 0.92408,-1.83058 0.92408,-1.83058 1.42533,-1.50707 1.42534,-1.50711 1.73022,-0.92219 1.73022,-0.92218 1.8029,-0.39168 1.80291,-0.39173 2.4569,-0.0181 2.457,-0.0181 z m 201.96844,-2.40702 -2.4569,0.25324 -2.457,0.60662 -2.4569,0.60658 -2.0905,0.95942 -2.0906,0.95942 -1.5883,1.50217 -1.5884,1.50218 -0.7495,1.27895 -0.7495,1.27892 -0.5723,1.64805 -0.5724,1.64805 -0.4571,1.87883 -0.4572,1.87883 -0.1299,12.99568 -0.1299,12.99572 -1.9275,2.39195 -1.9275,2.39192 -3.2518,0.004 -3.2519,0.004 v 1.01168 1.01167 h 16.1869 16.1868 v -1.01167 -1.01168 h -2.1506 -2.1507 l -2.0697,-2.51139 -2.0698,-2.51139 0.1301,-13.89224 0.1301,-13.89224 0.622,-2.2875 0.622,-2.28751 0.6986,-1.1811 0.6986,-1.1811 1.1076,-1.06444 1.1077,-1.06444 1.4453,-0.71592 1.4452,-0.71592 1.3008,-0.38598 1.3007,-0.38602 5.0584,0.0316 5.0584,0.0316 2.2247,0.60146 2.2246,0.60142 1.5886,0.75149 1.5885,0.7515 1.4121,1.26955 1.412,1.26954 0.9242,1.73392 0.9241,1.73388 0.6156,2.25864 0.6157,2.25864 0.1283,10.87085 0.1283,10.87085 -4.14,4.52111 -4.1399,4.52109 h -3.5484 -3.5482 v 1.01168 1.01168 h 15.1752 15.1751 v -1.01168 -1.01168 h -2.1365 -2.1365 l -4.0761,-4.40802 -4.0762,-4.40803 v -9.53867 l -0.01,-9.53867 -0.3125,-2.60146 -0.3125,-2.60145 -0.7103,-2.16788 -0.7103,-2.16788 -1.298,-1.91965 -1.2981,-1.91963 -1.3637,-1.06267 -1.3638,-1.06271 -1.815,-0.86638 -1.815,-0.86638 -2.7288,-0.69226 -2.7289,-0.69221 -2.9298,-0.30066 -2.9298,-0.30065 -3.6548,0.0386 -3.6548,0.0386 z m -342.52505,2.12683 v 1.01167 h 3.25182 3.25182 l 1.95109,2.30774 1.95109,2.30771 v 17.20637 17.20635 l -1.95109,2.3077 -1.95109,2.30774 h -3.25182 -3.25182 v 1.01168 1.01168 h 16.18684 16.18683 v -1.01168 -1.01168 h -2.53907 -2.53907 l -1.51121,-1.53023 -1.51122,-1.53024 0.0758,-10.69557 0.0758,-10.69557 13.37582,8.67348 13.37583,8.67354 -3.54377,3.55228 -3.54377,3.55231 h -1.8109 -1.81091 v 1.01168 1.01168 h 15.75326 15.75326 v -1.01168 -1.01168 h -2.4644 -2.46441 l -10.32608,-6.53644 -10.32608,-6.53648 -0.34999,-0.32847 -0.34999,-0.32852 11.42662,-14.95837 11.42661,-14.95837 h 2.29196 2.29197 v -1.01168 -1.01168 H 846.8273 830.49593 v 1.00278 1.00278 l 3.49936,0.0812 3.49934,0.0812 0.69189,1.84175 0.69189,1.84175 v 0.49428 0.49428 l -6.80673,9.08147 -6.80674,9.08146 -0.34727,0.0557 -0.34727,0.0557 -5.05839,-3.24203 -5.05838,-3.24207 -0.0778,-6.43897 -0.0778,-6.439 1.52309,-1.86053 1.52309,-1.86052 2.52919,-0.004 2.52919,-0.004 v -1.01168 -1.01168 h -16.18683 -16.18684 z m 205.80401,0 v 1.01167 h 3.2571 3.25704 l 1.9459,2.48808 1.9459,2.48803 v 16.90988 16.9099 l -1.9511,2.42105 -1.9511,2.42109 -3.25184,0.004 -3.2519,0.004 v 1.01168 1.01167 h 16.18694 16.1868 v -1.01167 -1.01168 h -2.1583 -2.1583 l -2.0329,-2.52607 -2.0329,-2.52612 v -7.44582 -7.44617 h 11.851 11.8511 v 7.61791 7.61796 l -1.9146,2.3543 -1.9146,2.35433 h -2.1321 -2.1321 v 1.01168 1.01168 h 16.3314 16.3312 v -1.01168 -1.01168 h -3.4127 -3.4127 l -1.9318,-2.38467 -1.9319,-2.38466 v -17.01985 -17.01984 l 1.9511,-2.41858 1.9511,-2.41863 3.3964,-2.3e-4 3.3963,-1.9e-4 v -1.01168 -1.01167 h -16.3313 -16.3313 v 1.01167 1.01168 h 2.1198 2.1198 l 1.9269,2.38228 1.9269,2.38228 v 8.02354 8.02354 h -11.8511 -11.8511 v -7.87974 -7.87976 l 2.033,-2.52607 2.0329,-2.52607 h 2.1583 2.1583 v -1.01168 -1.01167 h -16.187 -16.18694 z m 213.31944,0 v 1.01167 h 4.3051 4.3052 l 1.9059,2.24015 1.906,2.24014 v 17.34304 17.34304 l -1.906,2.24015 -1.9059,2.24014 h -4.3052 -4.3051 v 1.01167 1.01168 h 31.0729 31.073 v -8.81604 -8.81605 h -0.6671 -0.6671 l -4.8831,7.65985 -4.8832,7.65984 -10.4198,-0.0216 -10.4198,-0.0216 -1.9511,-2.26165 -1.9511,-2.26168 v -8.27418 -8.27417 l 4.8144,0.0793 4.8144,0.0792 3.6403,5.40624 3.6403,5.40621 0.7949,0.0135 0.7949,0.0135 v -12.14013 -12.14012 l -0.7949,0.005 -0.7949,0.005 -3.6719,5.63171 -3.672,5.63171 h -4.7828 -4.7827 v -7.84399 -7.84395 l 1.9083,-2.13215 1.9082,-2.13216 9.5542,0.0761 9.5542,0.0762 6.82,9.3124 6.82,9.3124 0.808,0.01 0.808,0.01 -0.1476,-0.93941 -0.1475,-0.93942 -0.4994,-9.61093 -0.4992,-9.61093 h -31.5954 -31.5954 z"
       id="path2-2-1-8"
       inkscape:export-filename="path2-2-1.svg"
       inkscape:export-xdpi="24.158974"
       inkscape:export-ydpi="24.158974" /></g></svg>
